<!-- Generated by SVGMaker - https://svgmaker.io -->
<!-- Prompt: 토스페이스에 문어 이모지 스타일로 귀여운 문어 그려줘 -->
<!-- Quality: medium -->
<!-- Type: generate -->
<!-- Created: 2026-04-06T07:00:32.374Z -->
<svg version="1.1" xmlns="http://www.w3.org/2000/svg" style="display: block;" viewBox="0 0 2048 2048" width="1024" height="1024" preserveAspectRatio="none"><path transform="translate(0,0)" fill="rgb(0,0,0)" d="M 993.898 342.407 C 1018.03 339.957 1050.24 342.325 1074.52 343.841 C 1333.16 359.987 1571.19 547.86 1605.33 812.82 C 1615.89 893.284 1605.2 975.111 1574.33 1050.17 C 1564.98 1072.8 1554.94 1093.45 1539.91 1112.95 C 1598.67 1091.07 1669.05 1093.25 1716.09 1138.91 C 1740.33 1162.21 1754.1 1194.34 1754.25 1227.96 C 1754.75 1278.92 1732.59 1325.46 1697.13 1361.36 C 1671.45 1387.87 1638.69 1406.44 1602.75 1414.86 C 1596.63 1416.27 1589.26 1418.15 1583.1 1418.16 C 1580.06 1426.83 1576.82 1436.01 1572.98 1444.34 C 1526.82 1544.46 1388.01 1590.89 1289.21 1545.22 C 1249.6 1588.68 1205.04 1604.48 1146.39 1599.8 C 1107.1 1596.76 1070.61 1578.26 1044.93 1548.37 C 1038.59 1541.27 1033.12 1533.45 1028.62 1525.07 C 989.951 1599.44 877.615 1620.82 807.81 1582.85 C 789.422 1572.84 776.529 1559.85 762.367 1545.01 C 650.304 1595.55 509.76 1536.99 473.619 1417.31 C 373.821 1409.87 279.774 1291.05 309.397 1191.62 C 319.194 1158.98 341.815 1131.71 372.084 1116.06 C 419.043 1091.32 468.989 1097.81 517.719 1112.68 C 510.14 1101.96 501.215 1084.95 495.397 1073.15 C 469.089 1019.81 454.797 963.874 450.872 904.562 C 442.179 773.164 486.402 647.099 571.698 547.793 C 655.942 450.34 769.595 382.93 895.509 355.733 C 930.753 348.096 958.444 345.144 993.898 342.407 z"></path><path transform="translate(0,0)" fill="rgb(238,44,50)" d="M 373.721 1265.71 C 369.715 1256.82 367.891 1247.92 366.613 1238.22 C 358.862 1179.4 404.326 1139.47 461.885 1150.46 C 487.067 1155.26 511.571 1163.78 536.608 1169.71 C 565.921 1176.67 595.748 1181.25 625.799 1183.42 C 633.503 1183.98 653.858 1185.6 660.01 1182.53 C 660.685 1180.92 661.161 1178.78 659.278 1177.51 C 495.218 1067.3 467.268 829.215 556.859 662.719 C 707.908 382.611 1101.54 314.611 1353.83 497.036 C 1460.96 574.5 1530.92 676.675 1546.99 809.502 C 1562.78 940.143 1528.1 1072.46 1423.1 1158.28 C 1418.76 1161.83 1391.22 1179.99 1390.13 1182.03 C 1393.03 1188.01 1412.19 1185.51 1418.69 1185.02 C 1458.28 1181.88 1497.54 1175.5 1536.09 1165.95 C 1572.61 1157.01 1610.9 1139.33 1648.16 1154.8 C 1666.14 1162.43 1680.35 1176.91 1687.64 1195.04 C 1695.46 1214.65 1693.25 1245.19 1684.85 1264.36 C 1679.02 1281.1 1672.64 1291.8 1660.93 1305.41 C 1652.08 1316.2 1638.19 1329.02 1626.02 1335.94 C 1608.58 1346.86 1601.5 1349.29 1581.98 1354.66 C 1575.92 1334.25 1572.3 1325.27 1561.84 1306.83 C 1528.61 1259.36 1486.08 1229.06 1428.65 1217.88 C 1419.38 1216.07 1371.89 1214.17 1373.72 1228.88 C 1376.87 1254.27 1422.96 1265.8 1442.96 1274.97 C 1523.75 1305.57 1553.29 1388.73 1488.16 1453.3 C 1443.93 1497.16 1366.02 1519.14 1310.01 1483.32 C 1310.05 1470.9 1310.14 1459.99 1307.63 1447.6 C 1299.09 1405.47 1268.51 1373.32 1239.98 1342.86 C 1233.95 1336.43 1208.07 1312.86 1197.28 1324.66 C 1194.18 1328.06 1196.34 1338.61 1197.63 1342.23 C 1202.28 1359.83 1220.11 1367.93 1231.59 1381.35 C 1255.65 1409.48 1272.24 1454.1 1254.26 1489.36 C 1244.3 1508.87 1221.59 1524.69 1200.93 1530.41 C 1189.61 1533.54 1169.17 1537.2 1157.63 1534.89 L 1151.32 1534.1 C 1103.78 1534.68 1071.43 1491.79 1057.49 1450.6 C 1053.35 1438.36 1041.27 1391.04 1028.52 1388.59 C 1003.75 1394.94 1006.02 1533.17 893.723 1535.03 L 891.044 1535.11 C 884.744 1536.5 875.954 1535.15 869.437 1534.26 C 846.261 1531.08 821.039 1517.95 806.885 1498.93 C 781.659 1465.02 799.526 1416.02 822.362 1385.78 C 835.482 1367.95 858.661 1358.54 861.578 1334.31 C 862.309 1328.24 860.649 1321.74 853.184 1321.81 C 842.406 1322.12 829.515 1331.33 822.103 1338.99 C 794.574 1367.45 764.487 1398.33 752.186 1436.76 C 747.291 1452.05 746.358 1465.76 746.101 1481.33 C 694.751 1517.55 620.983 1502.07 575.295 1463.03 C 503.482 1401.67 519.165 1311.36 605.082 1274.79 C 625.34 1266.17 656.01 1257.37 670.737 1240.49 C 685.675 1221.8 661.573 1217.48 648.378 1216.79 C 585.379 1213.46 526.011 1254.99 490.951 1305.44 C 480.177 1323.94 476.8 1333.97 471.202 1354.33 C 455.604 1349.92 440.508 1344.07 427.842 1333.63 C 418.174 1326.92 409.38 1319.03 401.664 1310.15 C 387.48 1295.78 381.159 1284.22 373.721 1265.71 z"></path><path transform="translate(0,0)" fill="rgb(254,233,80)" d="M 1660.93 1305.41 C 1639.12 1312.61 1618.89 1303.36 1611.43 1281.24 C 1607.72 1270.28 1608.63 1258.29 1613.93 1248 C 1626.79 1223.38 1664.27 1222.99 1678.21 1246.14 C 1682.33 1252.98 1683.06 1256.73 1684.85 1264.36 C 1679.02 1281.1 1672.64 1291.8 1660.93 1305.41 z"></path><path transform="translate(0,0)" fill="rgb(254,233,80)" d="M 373.721 1265.71 C 376.029 1254.69 379.712 1242.07 389.872 1236.02 C 422.165 1216.8 455.562 1245.4 444.782 1280 C 441.32 1291.13 433.386 1300.32 422.881 1305.36 C 416.417 1308.52 408.842 1310.06 401.664 1310.15 C 387.48 1295.78 381.159 1284.22 373.721 1265.71 z"></path><path transform="translate(0,0)" fill="rgb(254,233,80)" d="M 1151.32 1534.1 C 1139.48 1529.15 1130.01 1523.34 1124.59 1510.76 C 1120.77 1501.7 1120.73 1491.5 1124.47 1482.41 C 1128.17 1473.13 1135.48 1465.75 1144.72 1461.94 C 1194.9 1441.43 1220.18 1527.09 1157.63 1534.89 L 1151.32 1534.1 z"></path><path transform="translate(0,0)" fill="rgb(254,233,80)" d="M 891.044 1535.11 C 878.853 1533.02 868.385 1527.84 861.012 1517.5 C 855.454 1509.84 853.249 1500.25 854.904 1490.93 C 858.917 1469.26 877.721 1454.84 898.911 1460.39 C 937.785 1470.57 934.126 1528.49 893.723 1535.03 L 891.044 1535.11 z"></path><path transform="translate(0,0)" fill="rgb(254,233,80)" d="M 1561.84 1306.83 C 1571.04 1298.41 1579.04 1292.9 1592.44 1293.35 C 1602.03 1293.61 1611.08 1297.83 1617.43 1305.03 C 1625.96 1314.63 1626.55 1323.91 1626.02 1335.94 C 1608.58 1346.86 1601.5 1349.29 1581.98 1354.66 C 1575.92 1334.25 1572.3 1325.27 1561.84 1306.83 z"></path><path transform="translate(0,0)" fill="rgb(254,233,80)" d="M 427.842 1333.63 C 428.075 1322.57 428.74 1315.14 436.561 1306.1 C 442.866 1298.74 451.889 1294.26 461.56 1293.69 C 474.023 1292.96 482.136 1297.62 490.951 1305.44 C 480.177 1323.94 476.8 1333.97 471.202 1354.33 C 455.604 1349.92 440.508 1344.07 427.842 1333.63 z"></path><path transform="translate(0,0)" fill="rgb(0,0,0)" d="M 806.438 832.232 C 820.726 831.596 831.297 832.191 844.025 839.998 C 877.687 860.645 885.209 907.708 864.805 940.209 C 855.039 955.766 841.384 962.325 824.233 965.94 C 807.952 967.499 793.993 966.102 780.035 956.407 C 765.508 946.284 755.645 930.76 752.652 913.308 C 745.749 874.313 766.56 839.474 806.438 832.232 z"></path><path transform="translate(0,0)" fill="rgb(0,0,0)" d="M 1232.83 832.306 C 1310.23 825.028 1329.54 948.693 1246.2 965.959 C 1158.7 970.058 1154.44 846.635 1232.83 832.306 z"></path><path transform="translate(0,0)" fill="rgb(0,0,0)" d="M 940.971 964.186 C 962.94 963.41 969.949 972.878 987.332 985.109 C 1010.33 1001.99 1046.76 1002.93 1070.96 987.02 C 1087.67 976.034 1109.61 952.434 1133.36 969.427 C 1148.03 979.928 1132.92 1002.59 1123.73 1013.11 C 1112.83 1023.7 1095.03 1032.83 1080.7 1037.26 C 1038.21 1049.94 998.76 1046.95 959.014 1028.38 C 934.589 1016.97 898.099 973.54 940.971 964.186 z"></path><path transform="translate(0,0)" fill="rgb(254,233,80)" d="M 1353.37 1418.69 C 1373.7 1413.77 1394.18 1426.24 1399.14 1446.56 C 1404.1 1466.89 1391.66 1487.39 1371.34 1492.38 C 1350.98 1497.38 1330.42 1484.91 1325.45 1464.54 C 1320.48 1444.16 1332.99 1423.63 1353.37 1418.69 z"></path><path transform="translate(0,0)" fill="rgb(254,233,80)" d="M 683.453 1418.73 C 703.988 1414.38 724.13 1427.6 728.32 1448.17 C 732.51 1468.74 719.145 1488.78 698.548 1492.82 C 678.163 1496.81 658.372 1483.62 654.225 1463.26 C 650.079 1442.91 663.129 1423.02 683.453 1418.73 z"></path><path transform="translate(0,0)" fill="rgb(254,233,80)" d="M 1446.4 1381.93 C 1466.76 1380.17 1484.73 1395.15 1486.67 1415.49 C 1488.6 1435.84 1473.77 1453.94 1453.44 1456.04 C 1432.87 1458.17 1414.51 1443.13 1412.55 1422.54 C 1410.59 1401.95 1425.8 1383.71 1446.4 1381.93 z"></path><path transform="translate(0,0)" fill="rgb(254,233,80)" d="M 595.739 1382.07 C 615.996 1378.54 635.273 1392.12 638.774 1412.38 C 642.275 1432.64 628.673 1451.9 608.406 1455.38 C 588.178 1458.85 568.963 1445.27 565.468 1425.05 C 561.974 1404.83 575.52 1385.59 595.739 1382.07 z"></path></svg>