<!-- Generated by SVGMaker - https://svgmaker.io -->
<!-- Prompt: 이거 니가 아까 그렸던거거든 이거랑 똑같이 그려주고 색상을 #a41926 로 해줘 -->
<!-- Quality: medium -->
<!-- Type: edit -->
<!-- Created: 2026-04-06T07:10:22.920Z -->
<svg version="1.1" xmlns="http://www.w3.org/2000/svg" style="display: block;" viewBox="0 0 2048 1365" width="1536" height="1024" preserveAspectRatio="none"><path transform="translate(0,0)" fill="rgb(8,3,14)" d="M 0 0 L 2048 0 L 2048 1365 L 0 1365 L 0 0 z"></path><path transform="translate(0,0)" fill="rgb(36,35,36)" d="M 1049.07 1325.74 L 418.256 1325.77 L 193.907 1325.72 L 128.023 1325.85 C 101.159 1325.92 57.7356 1332.31 54.2491 1292.96 C 52.9028 1277.77 53.7067 1261.72 53.7164 1246.39 L 53.7472 1158.36 L 53.7988 861.13 L 53.7232 335.292 L 53.7181 164.635 C 53.7147 135.951 53.531 107.145 53.78 78.4616 C 53.8677 68.3536 55.1455 61.4888 61.6812 53.4722 C 67.2047 46.6972 78.293 40.0656 87.2136 39.7601 C 109.833 38.9854 133.186 39.2771 155.833 39.3171 L 284.999 39.3365 L 728.645 39.3986 L 1520.3 39.3031 L 1800.28 39.257 C 1853.23 39.2155 1906.33 39.038 1959.28 39.4746 C 1971.36 39.5742 1977.31 39.77 1986.88 47.828 C 1993.38 53.3003 2000.74 62.7049 2000.94 71.5084 C 2001.37 90.6497 2001.18 110.357 2001.17 129.539 L 2001.13 242.264 L 2001.16 598.12 L 2001.15 1060.68 L 2001.18 1210.95 C 2001.19 1236.98 2001.33 1263.25 2001.09 1289.26 C 2001.01 1298.36 1998.93 1306.12 1992.79 1312.9 C 1986.57 1319.77 1979.23 1324.39 1969.84 1325.02 C 1963.16 1327.67 1800.08 1326.16 1780.45 1326.15 L 1246.19 1326.15 L 1107.21 1326.11 C 1097.93 1326.12 1054.44 1326.78 1049.07 1325.74 z"></path><path transform="translate(0,0)" fill="rgb(65,61,79)" d="M 1049.07 1325.74 L 418.256 1325.77 L 193.907 1325.72 L 128.023 1325.85 C 101.159 1325.92 57.7356 1332.31 54.2491 1292.96 C 52.9028 1277.77 53.7067 1261.72 53.7164 1246.39 L 53.7472 1158.36 L 53.7988 861.13 L 53.7232 335.292 L 53.7181 164.635 C 53.7147 135.951 53.531 107.145 53.78 78.4616 C 53.8677 68.3536 55.1455 61.4888 61.6812 53.4722 C 67.2047 46.6972 78.293 40.0656 87.2136 39.7601 C 109.833 38.9854 133.186 39.2771 155.833 39.3171 L 284.999 39.3365 L 728.645 39.3986 L 1520.3 39.3031 L 1800.28 39.257 C 1853.23 39.2155 1906.33 39.038 1959.28 39.4746 C 1971.36 39.5742 1977.31 39.77 1986.88 47.828 C 1993.38 53.3003 2000.74 62.7049 2000.94 71.5084 C 2001.37 90.6497 2001.18 110.357 2001.17 129.539 L 2001.13 242.264 L 2001.16 598.12 L 2001.15 1060.68 L 2001.18 1210.95 C 2001.19 1236.98 2001.33 1263.25 2001.09 1289.26 C 2001.01 1298.36 1998.93 1306.12 1992.79 1312.9 C 1986.57 1319.77 1979.23 1324.39 1969.84 1325.02 C 1971.57 1322.81 1974.15 1321.85 1976.82 1321.02 C 2004.86 1312.22 1999.02 1280.72 1998.99 1256.01 L 1998.87 1181.92 L 1998.9 918.537 L 1998.87 356.367 L 1998.91 176.514 C 1998.94 143.057 1998.94 109.702 1998.67 76.1876 C 1998.53 59.0346 1984.81 43.0234 1967.52 41.6743 C 1948.77 40.2116 1928.34 42.398 1909.5 42.2539 L 1691.4 41.4532 L 1107 41.9888 L 419.761 41.4543 L 226.342 42.5071 C 182.048 42.3165 137.567 40.4569 93.1645 41.5649 C 74.4106 42.0329 56.7913 53.72 56.2502 73.7468 C 55.448 103.438 55.9653 133.388 56.0208 163.123 L 55.9187 315.901 L 55.9717 818.163 L 55.9907 1144.41 L 56.0049 1243.56 C 56.0033 1260.22 55.524 1276.92 56.439 1293.61 C 57.3849 1310.87 74.5829 1323.18 90.8305 1324.14 C 102.352 1324.82 114.811 1323.38 126.42 1324 C 153.483 1325.49 180.367 1324.98 207.432 1324.07 C 219.74 1323.66 233.448 1325.57 245.5 1324.79 C 272.971 1323 299.096 1324.08 326.478 1324.98 C 350.144 1325.76 375.62 1323.26 399.504 1324.25 C 439.518 1325.89 479.031 1323.8 518.873 1323.76 L 907.5 1324.95 C 937.186 1325.24 966.771 1323.51 996.469 1324.58 C 1013.34 1325.19 1032.11 1321.62 1049.07 1325.74 z"></path><path transform="translate(0,0)" fill="rgb(58,0,0)" d="M 1024.62 73.4642 C 1029.64 73.2819 1035.02 73.4048 1040.05 73.4855 C 1159.06 74.2098 1272.83 122.547 1355.96 207.71 C 1407.71 261.387 1448.88 349.886 1457.59 423.995 C 1465.23 488.979 1454.79 560.904 1425.53 619.856 C 1417.68 635.656 1408.96 651.008 1399.41 665.842 C 1387.75 683.624 1348.87 729.136 1350.91 745.484 C 1357 794.326 1434.76 819.81 1475.94 817.017 C 1514.8 814.382 1558.94 798.681 1557.96 758.254 C 1541.93 766.563 1528.31 767.362 1511.4 761.118 C 1492.72 754.219 1482.57 738.941 1484.22 719.12 C 1487.06 684.856 1525.92 670.706 1555.71 674.139 C 1625.62 681.692 1667.79 749.28 1659.03 815.98 C 1644.72 924.781 1532.02 980.802 1430.41 969.921 C 1437.19 974.578 1443.54 979.822 1449.39 985.592 C 1468.17 1004.04 1495.54 1046.73 1502.42 1072.2 C 1523.73 1151.06 1466.75 1236.29 1382.06 1234.31 C 1352.63 1233.62 1331.42 1225.88 1309.84 1205.77 C 1277.73 1175.84 1288.48 1117.67 1337.4 1118.79 C 1354.67 1119.1 1367.49 1130.08 1379.03 1142.59 C 1383.46 1135.07 1386.42 1127.35 1385.04 1118.35 C 1377.62 1069.83 1308.13 1060.62 1271.23 1045.57 C 1250.79 1037.24 1237.6 1029.85 1221.14 1016.53 C 1259.36 1080.72 1265.26 1189.61 1209.16 1245.65 C 1172.09 1282.68 1107.49 1289.92 1069.61 1250.44 C 1055.17 1235.53 1047.36 1215.41 1047.97 1194.65 C 1049.29 1149.99 1090.36 1124.53 1123.9 1161.68 C 1124.32 1151.51 1124.7 1141.22 1122.09 1131.2 C 1111.91 1092.08 1080.45 1060.42 1059.14 1026.67 C 1047.86 1008.81 1042.98 999.743 1035.75 980.222 L 1032.43 988.308 C 1025.27 1003.05 1017.03 1017.24 1007.78 1030.76 C 984.177 1064.81 931.141 1122.37 954.934 1165.58 C 966.115 1144.4 985.904 1135.77 1008.87 1145.29 C 1037.86 1157.3 1039.23 1200.18 1027.89 1225.31 C 1018.15 1246.55 1000.29 1262.99 978.314 1270.94 C 951.603 1280.88 921.301 1278.22 895.897 1266.25 C 823.373 1232.11 810.704 1141.07 828.726 1070.95 C 833.836 1051.07 840.601 1035.43 849.095 1017.05 C 829.841 1034.64 797.448 1047.7 772.729 1055.96 C 738.397 1067.43 674.958 1074.46 673.911 1121.6 C 673.707 1130.78 680.445 1138.27 686.695 1144 C 702.05 1112.56 732.963 1100.98 759.882 1131.32 C 767.409 1139.81 769.648 1158.84 767.366 1170.06 C 757.353 1219.3 705.434 1240.84 659.357 1231.91 C 628.963 1225.92 602.226 1208.02 585.089 1182.21 C 534.571 1106.64 568.12 1018.23 639.619 970.836 C 591.833 971.394 557.117 968.56 512.987 946.657 C 470.155 925.225 436.793 890.841 421.004 845.298 C 397.857 778.875 426.77 701.68 496.041 678.318 C 527.787 667.612 579.705 673.598 590.804 710.8 C 593.773 720.55 592.566 731.095 587.47 739.923 C 573.725 764.259 543.103 771.072 519.186 757.109 C 519.089 759.534 519.046 761.961 519.056 764.388 C 519.452 801.932 575.774 819.259 606.766 817.071 C 644.435 815.883 676.376 801.843 703.317 775.424 C 735.661 746.753 701.419 706.328 680.75 679.805 C 570.643 538.521 592.542 338.835 711.655 209.312 C 791.421 122.576 906.54 77.3597 1024.62 73.4642 z"></path><path transform="translate(0,0)" fill="rgb(181,1,19)" d="M 1008.38 96.4195 C 1019.4 95.3984 1038.92 95.7745 1050.05 96.1333 C 1125.65 98.5701 1202.55 121.583 1265.86 163.072 C 1347.76 216.735 1408.71 299.63 1427.6 396.573 C 1443.14 479.894 1431.14 567.839 1387.36 641.084 C 1372 666.786 1354.22 686.32 1337.17 710.222 C 1308.23 750.785 1341.2 790.892 1376.07 813.157 C 1416.26 838.778 1465.08 847.116 1511.49 836.285 C 1536.49 830.709 1559.56 818.509 1573.91 796.169 C 1585.39 778.288 1586.44 750.026 1566.18 737.546 C 1561.91 734.912 1554.16 733.01 1549.18 734.344 C 1552.04 738.397 1553.39 738.016 1554.16 742.246 C 1547.18 755.733 1517.31 747.272 1510.69 732.341 C 1508.63 727.722 1508.5 722.473 1510.32 717.756 C 1513.42 709.671 1519.74 703.588 1527.53 700.042 C 1543.21 692.905 1562.48 693.813 1578.33 699.9 C 1600.92 708.576 1617.94 725.062 1627.63 747.202 C 1641.29 778.433 1638.65 815.136 1626.36 846.284 C 1610.23 887.148 1575.71 916.367 1535.99 933.438 C 1459.21 966.434 1364.83 946.049 1306.23 887.19 C 1297.92 878.846 1277.26 848.541 1269.78 845.941 C 1267.18 845.039 1265.52 845.34 1263.11 846.49 C 1253.6 856.726 1269.47 877.329 1274.99 886.57 C 1312.06 947.695 1381.65 959.357 1433.07 1005.61 C 1481.74 1049.39 1497.58 1126.26 1452.21 1178.81 C 1423.53 1212.02 1365.7 1222.32 1331.3 1192.09 C 1320.19 1182.33 1312.71 1158.36 1325.76 1146.78 C 1337.09 1136.95 1350.59 1137.01 1360.82 1148.23 L 1361.73 1149.24 C 1362.13 1152.92 1362.21 1157.01 1364.59 1159.86 C 1367.52 1163.36 1371.78 1165.48 1376.33 1165.7 C 1395.83 1166.55 1410.43 1144.57 1410.59 1126.68 C 1411.91 1064.96 1331.66 1050.18 1287.2 1031.54 C 1238.68 1011.21 1210.29 985.827 1180.55 943.356 C 1175.45 936.072 1172.47 929.936 1168 922.502 C 1160.11 909.362 1157.64 894.374 1149.06 882.283 C 1146.28 878.55 1137.05 879.875 1136.13 883.084 C 1129.46 906.44 1151.86 944.422 1162.58 964.499 C 1169.65 977.738 1178.43 988.99 1185.43 1000.74 C 1190.82 1009.81 1195.82 1019.12 1200.41 1028.64 C 1231.73 1093.47 1242.94 1192.4 1175.41 1240.51 C 1140.19 1265.59 1075.9 1253.71 1070.22 1204.97 C 1068.17 1187.4 1073.8 1167 1094.14 1165.02 C 1119.37 1162.12 1102.49 1193.45 1124.15 1189.46 C 1143.55 1185.89 1147.14 1166.24 1147.52 1149.53 C 1148.2 1121.72 1135.3 1093.55 1120.58 1070.57 C 1097.05 1033.83 1066.84 1002.7 1053.37 960.11 C 1049.97 949.384 1047.71 939.994 1045.36 928.791 C 1044.96 924.21 1044.23 918.524 1041.25 914.908 C 1033.11 911.47 1028.72 920.234 1026.97 926.891 C 1024.3 937.028 1022.7 947.639 1019.55 957.661 C 1002.08 1013.29 952.282 1050.24 932.194 1104.42 C 924.616 1124.86 920.722 1150.93 929.995 1171.49 C 935.909 1184.63 949.806 1196.02 964.473 1187.83 C 972.082 1184.84 970.808 1165.33 979.147 1163.66 C 1010.73 1157.33 1015.99 1195.48 1008.24 1214.28 C 992.878 1251.54 948.589 1260.99 914.751 1247.99 C 888.102 1237.75 868.816 1215.28 858.455 1189.52 C 833.887 1130.57 848.589 1063.07 879.553 1009.46 C 894.959 982.86 913.419 957.17 924.637 928.326 C 928.385 918.691 941.967 885.239 926.614 881.699 C 917.355 879.565 915.659 889.82 912.974 896.208 C 909.94 903.429 907.263 910.989 903.975 918.131 C 893.599 939.654 878.739 959.414 862.297 976.68 C 829.731 1013.59 785.165 1033.56 738.798 1047.05 C 705.421 1056.77 663.285 1071.12 653.991 1108.99 C 650.674 1122.03 652.738 1135.85 659.72 1147.35 C 666.684 1158.67 676.432 1165.43 689.908 1163.86 C 709.807 1161.54 702.212 1129.08 726.827 1135.53 C 745.052 1140.31 747.383 1158.93 741.746 1174.35 C 727.388 1209.13 680.518 1215.98 648.921 1202.87 C 585.619 1176.6 573.267 1099.33 603.76 1043.68 C 650.115 959.099 766.661 956.056 803.804 864.641 C 806.716 857.476 809.015 848.782 799.605 846.054 C 790.933 847.031 784.61 861.557 780.099 868.372 C 714.471 967.518 547.995 977.191 470.827 887.158 C 432.418 840.275 418.738 755.738 470.049 712.627 C 487.077 698.32 508.375 691.299 530.545 693.083 C 547.669 694.461 569.934 706.926 567.144 726.881 C 564.865 743.183 543.707 750.345 529.445 747.518 C 526.068 746.851 525.558 746.572 523.708 743.901 C 523.589 740.464 525.848 737.569 527.679 734.428 L 527.113 733.192 C 526.624 733.167 526.135 733.142 525.646 733.118 C 503.028 735.235 494.933 756.358 495.834 774.537 C 496.535 789.134 503.069 802.839 513.969 812.575 C 541.435 837.233 575.798 841.6 613.545 840.52 C 665.187 839.043 751.678 794.21 741.478 732.234 C 738.977 717.037 712.687 684.568 702.079 669.96 C 663.105 616.837 640.002 553.748 635.452 488.02 C 629.038 394.388 660.609 302.119 723.039 232.044 C 797.303 147.861 896.979 103.247 1008.38 96.4195 z"></path><path transform="translate(0,0)" fill="rgb(58,0,0)" d="M 1218.37 475.338 C 1252.79 472.506 1283.04 497.98 1286.11 532.379 C 1289.18 566.777 1263.92 597.205 1229.54 600.511 C 1194.83 603.85 1164.03 578.282 1160.94 543.547 C 1157.84 508.812 1183.61 478.197 1218.37 475.338 z"></path><path transform="translate(0,0)" fill="rgb(117,57,57)" d="M 1247.51 508.234 C 1253.67 506.234 1260.42 507.734 1265.15 512.151 C 1269.88 516.568 1271.85 523.206 1270.27 529.485 C 1268.7 535.764 1263.84 540.694 1257.59 542.36 C 1248.27 544.842 1238.67 539.452 1235.94 530.203 C 1233.21 520.955 1238.34 511.213 1247.51 508.234 z"></path><path transform="translate(0,0)" fill="rgb(58,0,0)" d="M 841.102 475.274 C 875.512 471.734 906.311 496.673 910.005 531.067 C 913.699 565.46 888.898 596.371 854.522 600.219 C 819.926 604.092 788.776 579.099 785.058 544.487 C 781.341 509.874 806.473 478.836 841.102 475.274 z"></path><path transform="translate(0,0)" fill="rgb(117,57,57)" d="M 869.699 508.342 C 875.818 506.188 882.625 507.529 887.468 511.844 C 892.312 516.159 894.428 522.766 892.992 529.092 C 891.556 535.419 886.795 540.465 880.563 542.265 C 871.3 544.942 861.589 539.765 858.648 530.582 C 855.708 521.4 860.605 511.545 869.699 508.342 z"></path><path transform="translate(0,0)" fill="rgb(219,67,76)" d="M 920.061 141.412 C 921.118 141.437 922.176 141.482 923.232 141.547 C 929.79 141.966 934.828 143.993 939.062 149.197 C 941.454 152.085 942.509 155.852 941.963 159.562 C 941.453 162.992 939.788 166.981 936.86 169.097 C 923.463 178.781 907.687 182.949 892.413 189.17 C 865.554 200.108 841.34 213.787 819.482 232.924 C 803.567 246.642 789.179 262.036 776.567 278.841 C 763.851 295.982 752.701 322.334 737.273 333.241 C 723.587 337.701 715.466 329.502 715.684 316.144 C 716.101 290.693 728.798 267.207 745.213 248.408 C 791.999 194.826 844.982 145.375 920.061 141.412 z"></path><path transform="translate(0,0)" fill="rgb(58,0,0)" d="M 1105.01 591.888 C 1106.44 591.889 1107.85 592.004 1109.26 592.231 C 1123.51 594.533 1119.85 611.389 1115.13 620.319 C 1082.81 681.501 998.552 680.106 963.644 622.511 C 947.265 587.367 977.18 588.281 980.046 601.078 C 993.036 659.066 1082.01 659.126 1097.29 603.163 C 1098.82 597.561 1100.47 595.207 1105.01 591.888 z"></path><path transform="translate(0,0)" fill="rgb(219,67,76)" d="M 1272.65 604.378 C 1332.07 601.42 1340.48 659.68 1282.24 664.509 C 1231.31 672.785 1208.87 610.193 1272.65 604.378 z"></path><path transform="translate(0,0)" fill="rgb(219,67,76)" d="M 786.998 604.33 C 847.429 601.201 856.661 657.653 799.391 664.622 C 741.211 668.118 729.365 612.75 786.998 604.33 z"></path><path transform="translate(0,0)" fill="rgb(128,1,9)" d="M 1400.37 906.175 C 1420.76 905.26 1439.37 930.875 1409.94 937.317 C 1383.78 936.148 1370.01 911.137 1400.37 906.175 z"></path><path transform="translate(0,0)" fill="rgb(128,1,9)" d="M 571.852 906.135 C 593.779 904.889 610.786 929.733 583.972 936.62 C 559.062 936.833 543.175 912.644 571.852 906.135 z"></path><path transform="translate(0,0)" fill="rgb(128,1,9)" d="M 1480.16 906.307 C 1490.29 907.281 1501.83 912.355 1494.9 924.948 C 1490.64 932.697 1483.42 934.409 1475.45 936.342 C 1447.08 933.7 1454.37 909.588 1480.16 906.307 z"></path><path transform="translate(0,0)" fill="rgb(219,67,76)" d="M 467.244 808.912 C 475.333 809.68 479.88 812.219 483.51 819.807 C 486.299 825.603 486.552 832.297 484.209 838.286 C 482.14 843.477 479.722 845.061 475.026 847.174 C 455.542 847.098 447.582 818.275 467.244 808.912 z"></path><path transform="translate(0,0)" fill="rgb(128,1,9)" d="M 645.583 906.105 C 669.631 904.668 673.726 924.993 648.783 934.579 C 625.989 937.433 620.035 913.823 645.583 906.105 z"></path><path transform="translate(0,0)" fill="rgb(219,67,76)" d="M 1545.82 883.243 C 1551.94 884.16 1557.96 886.156 1559.96 892.746 C 1560.81 895.53 1560.47 898.542 1559.01 901.062 C 1556.41 905.663 1552.59 907.183 1547.94 908.639 C 1526.5 906.63 1524.44 887.264 1545.82 883.243 z"></path><path transform="translate(0,0)" fill="rgb(219,67,76)" d="M 508.049 864.134 C 526.189 863.009 536.324 878.739 518.307 887.786 C 498.432 888.857 488.398 873.891 508.049 864.134 z"></path><path transform="translate(0,0)" fill="rgb(219,67,76)" d="M 1590.17 805.141 C 1609.85 803.599 1616.41 820.223 1598.24 828.855 C 1578.77 830.11 1571.79 816.254 1590.17 805.141 z"></path><path transform="translate(0,0)" fill="rgb(219,67,76)" d="M 1926.66 90.7594 C 1930.96 91.2244 1935.4 97.0277 1938.29 100.199 C 1941.2 97.1991 1944.22 93.414 1948.14 92.5326 L 1948.95 93.8416 C 1947.47 97.8423 1944.5 99.8891 1941.26 102.827 C 1941.8 103.335 1942.35 103.847 1942.88 104.362 C 1947.13 108.421 1949.64 110.042 1949.76 115.388 C 1945.36 113.604 1941.74 109.259 1938.31 105.773 C 1935.52 108.728 1932.95 111.976 1929.21 113.484 L 1928.03 112.669 C 1929.22 108.647 1932.55 106.077 1935.64 102.995 C 1931.77 99.2291 1926.93 95.6497 1926.66 90.7594 z"></path><path transform="translate(0,0)" fill="rgb(65,61,79)" d="M 1387 1324.5 C 1396.43 1322.57 1476.55 1323.45 1488.52 1324.5 C 1481.65 1325.98 1393.32 1325.96 1387 1324.5 z"></path><path transform="translate(0,0)" fill="rgb(65,61,79)" d="M 1298.75 1324.5 C 1307.25 1323.47 1328.77 1323.77 1337.25 1324.5 C 1329.85 1326.03 1306.33 1325.52 1298.75 1324.5 z"></path><path transform="translate(0,0)" fill="rgb(65,61,79)" d="M 1101.48 1324.5 C 1110.51 1323.58 1124.17 1323.77 1133.25 1324.49 C 1126.17 1325.88 1108.79 1325.72 1101.48 1324.5 z"></path></svg>